<svg version="1.1" viewBox="0.0 0.0 960.0 540.0" fill="none" stroke="none" stroke-linecap="square" stroke-miterlimit="10" xmlns:xlink="http://www.w3.org/1999/xlink" xmlns="http://www.w3.org/2000/svg"><clipPath id="g29b3eef5ea1_0_21.0"><path d="m0 0l960.0 0l0 540.0l-960.0 0l0 -540.0z" clip-rule="nonzero"/></clipPath><g clip-path="url(#g29b3eef5ea1_0_21.0)"><path fill="#ffffff" d="m0 0l960.0 0l0 540.0l-960.0 0z" fill-rule="evenodd"/><path fill="#000000" fill-opacity="0.0" d="m526.65967 442.74826l0 -409.7953" fill-rule="evenodd"/><path stroke="#70aca7" stroke-width="2.0" stroke-linejoin="round" stroke-linecap="butt" stroke-dasharray="2.0,6.0" d="m526.65967 442.74826l0 -409.7953" fill-rule="evenodd"/><path fill="#000000" fill-opacity="0.0" d="m266.1833 235.67209l520.9764 0" fill-rule="evenodd"/><path stroke="#70aca7" stroke-width="2.0" stroke-linejoin="round" stroke-linecap="butt" stroke-dasharray="2.0,6.0" d="m266.1833 235.67209l520.9764 0" fill-rule="evenodd"/><path fill="#000000" fill-opacity="0.0" d="m267.35385 442.17026l523.327 0" fill-rule="evenodd"/><path stroke="#3c5b64" stroke-width="3.0" stroke-linejoin="round" stroke-linecap="butt" d="m267.35385 442.1703l505.32706 0" fill-rule="evenodd"/><path fill="#3c5b64" stroke="#3c5b64" stroke-width="3.0" stroke-linecap="butt" d="m772.68097 447.12546l13.614258 -4.9551697l-13.614258 -4.9552z" fill-rule="evenodd"/><path fill="#000000" fill-opacity="0.0" d="m267.35385 442.17026l0 -429.04245" fill-rule="evenodd"/><path stroke="#3c5b64" stroke-width="3.0" stroke-linejoin="round" stroke-linecap="butt" d="m267.35385 442.1703l0 -411.04248" fill-rule="evenodd"/><path fill="#3c5b64" stroke="#3c5b64" stroke-width="3.0" stroke-linecap="butt" d="m272.30902 31.12781l-4.9551697 -13.614292l-4.9552 13.614292z" fill-rule="evenodd"/><path fill="#000000" fill-opacity="0.0" d="m459.70523 466.89047l161.5433 0l0 37.165344l-161.5433 0z" fill-rule="evenodd"/><path fill="#3c5b64" d="m469.6271 490.75314l0 -10.65625l7.1875 0l0 1.859375l-4.921875 0l0 2.53125l4.546875 0l0 1.859375l-4.546875 0l0 2.546875l4.9375 0l0 1.859375l-7.203125 0zm8.978058 0l0 -10.65625l7.0625 0l0 1.859375l-4.796875 0l0 2.53125l4.328125 0l0 1.859375l-4.328125 0l0 4.40625l-2.265625 0zm8.572113 0l0 -10.65625l7.0625 0l0 1.859375l-4.796875 0l0 2.53125l4.328125 0l0 1.859375l-4.328125 0l0 4.40625l-2.265625 0zm18.368958 -5.328125q0 1.734375 -0.65625 2.96875q-0.65625 1.21875 -1.796875 1.859375q-1.125 0.640625 -2.53125 0.640625q-1.421875 0 -2.5625 -0.640625q-1.125 -0.640625 -1.78125 -1.859375q-0.65625 -1.234375 -0.65625 -2.96875q0 -1.75 0.65625 -2.96875q0.65625 -1.21875 1.78125 -1.859375q1.140625 -0.65625 2.5625 -0.65625q1.40625 0 2.53125 0.65625q1.140625 0.640625 1.796875 1.859375q0.65625 1.21875 0.65625 2.96875zm-2.28125 0q0 -1.125 -0.34375 -1.90625q-0.328125 -0.78125 -0.9375 -1.171875q-0.609375 -0.40625 -1.421875 -0.40625q-0.828125 0 -1.4375 0.40625q-0.59375 0.390625 -0.9375 1.171875q-0.328125 0.78125 -0.328125 1.90625q0 1.125 0.328125 1.90625q0.34375 0.765625 0.9375 1.171875q0.609375 0.40625 1.4375 0.40625q0.8125 0 1.421875 -0.40625q0.609375 -0.40625 0.9375 -1.171875q0.34375 -0.78125 0.34375 -1.90625zm3.9450684 5.328125l0 -10.65625l4.203125 0q1.2187805 0 2.0625305 0.4375q0.859375 0.421875 1.3125 1.203125q0.453125 0.78125 0.453125 1.84375q0 1.0625 -0.46875 1.828125q-0.453125 0.75 -1.328125 1.15625q-0.859375 0.40625 -2.0781555 0.40625l-2.8125 0l0 -1.8125l2.4375 0q0.65625 0 1.0781555 -0.171875q0.421875 -0.171875 0.625 -0.53125q0.21875 -0.359375 0.21875 -0.875q0 -0.53125 -0.21875 -0.890625q-0.203125 -0.375 -0.640625 -0.5625q-0.42190552 -0.1875 -1.0625305 -0.1875l-1.515625 0l0 8.8125l-2.265625 0zm5.7656555 -4.84375l2.640625 4.84375l-2.484375 0l-2.5937805 -4.84375l2.4375305 0zm3.44635 -3.953125l0 -1.859375l8.765625 0l0 1.859375l-3.265625 0l0 8.796875l-2.234375 0l0 -8.796875l-3.265625 0z" fill-rule="nonzero"/><path fill="#000000" fill-opacity="0.0" d="m125.71129 203.01485l161.54332 0l0 37.16536l-161.54332 0z" fill-rule="evenodd"/><path fill="#3c5b64" d="m137.89879 216.22128l0 10.65625l-2.265625 0l0 -10.65625l2.265625 0zm1.8460693 0l2.78125 0l2.9375 7.15625l0.125 0l2.9375 -7.15625l2.78125 0l0 10.65625l-2.1875 0l0 -6.9375l-0.09375 0l-2.75 6.890625l-1.5 0l-2.75 -6.921875l-0.09375 0l0 6.96875l-2.1875 0l0 -10.65625zm13.407257 10.65625l0 -10.65625l4.203125 0q1.21875 0 2.0625 0.46875q0.859375 0.453125 1.3125 1.265625q0.453125 0.8125 0.453125 1.875q0 1.0625 -0.46875 1.875q-0.453125 0.8125 -1.328125 1.265625q-0.859375 0.453125 -2.078125 0.453125l-2.6875 0l0 -1.8125l2.3125 0q0.65625 0 1.078125 -0.21875q0.421875 -0.234375 0.625 -0.625q0.21875 -0.40625 0.21875 -0.9375q0 -0.53125 -0.21875 -0.921875q-0.203125 -0.40625 -0.625 -0.625q-0.421875 -0.21875 -1.078125 -0.21875l-1.515625 0l0 8.8125l-2.265625 0zm10.102707 0l-2.421875 0l3.6875 -10.65625l2.90625 0l3.671875 10.65625l-2.421875 0l-2.671875 -8.21875l-0.078125 0l-2.671875 8.21875zm-0.15625 -4.1875l5.703125 0l0 1.75l-5.703125 0l0 -1.75zm18.179794 -2.734375l-2.28125 0q-0.0625 -0.453125 -0.25 -0.796875q-0.1875 -0.34375 -0.5 -0.578125q-0.296875 -0.25 -0.6875 -0.375q-0.390625 -0.140625 -0.859375 -0.140625q-0.828125 0 -1.4375 0.40625q-0.609375 0.40625 -0.953125 1.1875q-0.328125 0.78125 -0.328125 1.890625q0 1.140625 0.328125 1.921875q0.34375 0.765625 0.953125 1.171875q0.625 0.390625 1.421875 0.390625q0.453125 0 0.84375 -0.125q0.390625 -0.125 0.6875 -0.34375q0.3125 -0.234375 0.5 -0.5625q0.203125 -0.34375 0.28125 -0.765625l2.28125 0q-0.078125 0.734375 -0.4375 1.421875q-0.34375 0.671875 -0.9375 1.21875q-0.59375 0.53125 -1.40625 0.84375q-0.8125 0.296875 -1.84375 0.296875q-1.421875 0 -2.546875 -0.640625q-1.125 -0.640625 -1.78125 -1.859375q-0.640625 -1.234375 -0.640625 -2.96875q0 -1.75 0.65625 -2.96875q0.65625 -1.21875 1.78125 -1.859375q1.125 -0.65625 2.53125 -0.65625q0.921875 0 1.71875 0.265625q0.796875 0.265625 1.40625 0.765625q0.625 0.484375 1.0 1.203125q0.390625 0.71875 0.5 1.65625zm1.2110138 -1.875l0 -1.859375l8.765625 0l0 1.859375l-3.265625 0l0 8.796875l-2.234375 0l0 -8.796875l-3.265625 0z" fill-rule="nonzero"/><path fill="#000000" fill-opacity="0.0" d="m344.18027 442.154l68.566925 0l0 33.921265l-68.566925 0z" fill-rule="evenodd"/><path fill="#3c5b64" d="m354.24277 463.43463l0 -8.734375l1.046875 0l0 7.796875l4.0625 0l0 0.9375l-5.109375 0zm13.76828 -4.359375q0 1.375 -0.5 2.390625q-0.5 1.0 -1.375 1.546875q-0.859375 0.546875 -1.984375 0.546875q-1.109375 0 -1.984375 -0.546875q-0.859375 -0.546875 -1.359375 -1.546875q-0.5 -1.015625 -0.5 -2.390625q0 -1.390625 0.5 -2.390625q0.5 -1.0 1.359375 -1.546875q0.875 -0.546875 1.984375 -0.546875q1.125 0 1.984375 0.546875q0.875 0.546875 1.375 1.546875q0.5 1.0 0.5 2.390625zm-1.03125 0q0 -1.140625 -0.375 -1.921875q-0.375 -0.78125 -1.015625 -1.171875q-0.640625 -0.40625 -1.4375 -0.40625q-0.78125 0 -1.421875 0.40625q-0.640625 0.390625 -1.03125 1.171875q-0.375 0.78125 -0.375 1.921875q0 1.125 0.375 1.90625q0.390625 0.78125 1.03125 1.1875q0.640625 0.390625 1.421875 0.390625q0.796875 0 1.4375 -0.390625q0.640625 -0.40625 1.015625 -1.1875q0.375 -0.78125 0.375 -1.90625zm4.386139 4.359375l-2.390625 -8.734375l1.078125 0l1.828125 7.109375l0.078125 0l1.859375 -7.109375l1.203125 0l1.84375 7.109375l0.09375 0l1.828125 -7.109375l1.0625 0l-2.375 8.734375l-1.09375 0l-1.921875 -6.953125l-0.078125 0l-1.921875 6.953125l-1.09375 0z" fill-rule="nonzero"/><path fill="#000000" fill-opacity="0.0" d="m606.3943 442.154l68.566895 0l0 33.921265l-68.566895 0z" fill-rule="evenodd"/><path fill="#3c5b64" d="m616.4568 463.43463l0 -8.734375l1.046875 0l0 3.890625l4.65625 0l0 -3.890625l1.0625 0l0 8.734375l-1.0625 0l0 -3.90625l-4.65625 0l0 3.90625l-1.046875 0zm9.927307 -8.734375l0 8.734375l-1.046875 0l0 -8.734375l1.046875 0zm8.07666 2.734375q-0.140625 -0.4375 -0.375 -0.765625q-0.21875 -0.34375 -0.53125 -0.59375q-0.3125 -0.25 -0.71875 -0.375q-0.390625 -0.125 -0.859375 -0.125q-0.765625 0 -1.40625 0.40625q-0.640625 0.390625 -1.015625 1.171875q-0.375 0.78125 -0.375 1.921875q0 1.125 0.375 1.90625q0.390625 0.78125 1.03125 1.1875q0.65625 0.390625 1.46875 0.390625q0.75 0 1.3125 -0.3125q0.578125 -0.328125 0.890625 -0.90625q0.328125 -0.59375 0.328125 -1.40625l0.328125 0.078125l-2.625 0l0 -0.9375l3.328125 0l0 0.9375q0 1.078125 -0.46875 1.875q-0.453125 0.796875 -1.265625 1.234375q-0.796875 0.4375 -1.828125 0.4375q-1.171875 0 -2.046875 -0.546875q-0.875 -0.546875 -1.359375 -1.546875q-0.484375 -1.015625 -0.484375 -2.390625q0 -1.046875 0.28125 -1.875q0.28125 -0.828125 0.78125 -1.40625q0.515625 -0.578125 1.203125 -0.890625q0.703125 -0.3125 1.546875 -0.3125q0.6875 0 1.28125 0.203125q0.609375 0.203125 1.078125 0.59375q0.46875 0.375 0.78125 0.890625q0.328125 0.515625 0.4375 1.15625l-1.09375 0zm2.9614258 6.0l0 -8.734375l1.046875 0l0 3.890625l4.65625 0l0 -3.890625l1.0625 0l0 8.734375l-1.0625 0l0 -3.90625l-4.65625 0l0 3.90625l-1.046875 0z" fill-rule="nonzero"/><path fill="#000000" fill-opacity="0.0" d="m198.79166 339.7836l68.566925 0l0 33.921234l-68.566925 0z" fill-rule="evenodd"/><path fill="#3c5b64" d="m232.48994 360.3036l0 -8.734375l1.046875 0l0 7.796875l4.0625 0l0 0.9375l-5.109375 0zm13.768295 -4.359375q0 1.375 -0.5 2.390625q-0.5 1.0 -1.375 1.546875q-0.859375 0.546875 -1.984375 0.546875q-1.109375 0 -1.984375 -0.546875q-0.859375 -0.546875 -1.359375 -1.546875q-0.5 -1.015625 -0.5 -2.390625q0 -1.390625 0.5 -2.390625q0.5 -1.0 1.359375 -1.546875q0.875 -0.546875 1.984375 -0.546875q1.125 0 1.984375 0.546875q0.875 0.546875 1.375 1.546875q0.5 1.0 0.5 2.390625zm-1.03125 0q0 -1.140625 -0.375 -1.921875q-0.375 -0.78125 -1.015625 -1.171875q-0.640625 -0.40625 -1.4375 -0.40625q-0.78125 0 -1.421875 0.40625q-0.640625 0.390625 -1.03125 1.171875q-0.375 0.78125 -0.375 1.921875q0 1.125 0.375 1.90625q0.390625 0.78125 1.03125 1.1875q0.640625 0.390625 1.421875 0.390625q0.796875 0 1.4375 -0.390625q0.640625 -0.40625 1.015625 -1.1875q0.375 -0.78125 0.375 -1.90625zm4.386139 4.359375l-2.390625 -8.734375l1.078125 0l1.828125 7.109375l0.078125 0l1.859375 -7.109375l1.203125 0l1.84375 7.109375l0.09375 0l1.828125 -7.109375l1.0625 0l-2.375 8.734375l-1.09375 0l-1.921875 -6.953125l-0.078125 0l-1.921875 6.953125l-1.09375 0z" fill-rule="nonzero"/><path fill="#000000" fill-opacity="0.0" d="m198.7925 97.63761l68.56694 0l0 33.921257l-68.56694 0z" fill-rule="evenodd"/><path fill="#3c5b64" d="m229.57607 118.157616l0 -8.734375l1.046875 0l0 3.890625l4.65625 0l0 -3.890625l1.0625 0l0 8.734375l-1.0625 0l0 -3.90625l-4.65625 0l0 3.90625l-1.046875 0zm9.927338 -8.734375l0 8.734375l-1.046875 0l0 -8.734375l1.046875 0zm8.07663 2.734375q-0.140625 -0.4375 -0.375 -0.765625q-0.21875 -0.34375 -0.53125 -0.59375q-0.3125 -0.25 -0.71875 -0.375q-0.390625 -0.125 -0.859375 -0.125q-0.765625 0 -1.40625 0.40625q-0.640625 0.390625 -1.015625 1.171875q-0.375 0.78125 -0.375 1.921875q0 1.125 0.375 1.90625q0.390625 0.78125 1.03125 1.1875q0.65625 0.390625 1.46875 0.390625q0.75 0 1.3125 -0.3125q0.578125 -0.328125 0.890625 -0.90625q0.328125 -0.59375 0.328125 -1.40625l0.328125 0.078125l-2.625 0l0 -0.9375l3.328125 0l0 0.9375q0 1.078125 -0.46875 1.875q-0.453125 0.796875 -1.265625 1.234375q-0.796875 0.4375 -1.828125 0.4375q-1.171875 0 -2.046875 -0.546875q-0.875 -0.546875 -1.359375 -1.546875q-0.484375 -1.015625 -0.484375 -2.390625q0 -1.046875 0.28125 -1.875q0.28125 -0.828125 0.78125 -1.40625q0.515625 -0.578125 1.203125 -0.890625q0.703125 -0.3125 1.546875 -0.3125q0.6875 0 1.28125 0.203125q0.609375 0.203125 1.078125 0.59375q0.46875 0.375 0.78125 0.890625q0.328125 0.515625 0.4375 1.15625l-1.09375 0zm2.9614258 6.0l0 -8.734375l1.046875 0l0 3.890625l4.6562653 0l0 -3.890625l1.0625 0l0 8.734375l-1.0625 0l0 -3.90625l-4.6562653 0l0 3.90625l-1.046875 0z" fill-rule="nonzero"/><path fill="#f0603c" d="m583.46594 51.05179l111.84253 0l0 45.826775l-111.84253 0z" fill-rule="evenodd"/><path fill="#ffffff" d="m596.3253 71.57179l-3.09375 0l0 -8.734379l3.109375 0q1.3125 0 2.265625 0.53125q0.953125 0.515625 1.46875 1.5000038q0.515625 0.96875 0.515625 2.328125q0 1.359375 -0.515625 2.34375q-0.515625 0.984375 -1.46875 1.515625q-0.953125 0.515625 -2.28125 0.515625zm-1.25 -1.578125l1.171875 0q0.8125 0 1.375 -0.296875q0.5625 -0.296875 0.84375 -0.90625q0.28125 -0.609375 0.28125 -1.59375q0 -0.96875 -0.28125 -1.578125q-0.28125 -0.609375 -0.84375 -0.890625q-0.5625 -0.296875 -1.375 -0.296875l-1.171875 0l0 5.5625zm12.273926 -7.156254l1.84375 0l0 5.671879q0 0.953125 -0.453125 1.671875q-0.453125 0.71875 -1.28125 1.125q-0.8125 0.390625 -1.890625 0.390625q-1.078125 0 -1.90625 -0.390625q-0.8125 -0.40625 -1.265625 -1.125q-0.4375 -0.71875 -0.4375 -1.671875l0 -5.671879l1.84375 0l0 5.515629q0 0.5 0.21875 0.890625q0.21875 0.390625 0.609375 0.609375q0.40625 0.21875 0.9375 0.21875q0.53125 0 0.921875 -0.21875q0.40625 -0.21875 0.625 -0.609375q0.234375 -0.390625 0.234375 -0.890625l0 -5.515629zm4.8619995 8.734379l-1.984375 0l3.015625 -8.734379l2.375 0l3.015625 8.734379l-1.984375 0l-2.1875 -6.734375l-0.0625 0l-2.1875 6.734375zm-0.125 -3.4375l4.671875 0l0 1.453125l-4.671875 0l0 -1.453125zm7.599182 3.4375l0 -8.734379l1.84375 0l0 7.218754l3.734375 0l0 1.515625l-5.578125 0zm10.575073 -9.140629l-2.8125 10.453129l-1.5625 0l2.8125 -10.453129l1.5625 0zm5.647644 2.9218788q-0.0625 -0.515625 -0.453125 -0.796875q-0.375 -0.28125 -1.046875 -0.28125q-0.453125 0 -0.765625 0.125q-0.3125 0.125 -0.484375 0.34375q-0.15625 0.21875 -0.15625 0.5q0 0.234375 0.109375 0.40625q0.109375 0.171875 0.296875 0.296875q0.1875 0.125 0.4375 0.21875q0.25 0.09375 0.546875 0.15625l0.78125 0.1875q0.5625 0.125 1.046875 0.34375q0.484375 0.21875 0.828125 0.53125q0.34375 0.3125 0.53125 0.734375q0.203125 0.421875 0.203125 0.953125q0 0.8125 -0.40625 1.40625q-0.390625 0.578125 -1.15625 0.90625q-0.75 0.3125 -1.8125 0.3125q-1.0625 0 -1.84375 -0.328125q-0.78125 -0.328125 -1.21875 -0.953125q-0.4375 -0.640625 -0.453125 -1.578125l1.78125 0q0.03125 0.4375 0.25 0.734375q0.21875 0.28125 0.59375 0.4375q0.390625 0.140625 0.859375 0.140625q0.46875 0 0.8125 -0.140625q0.359375 -0.140625 0.546875 -0.375q0.1875 -0.25 0.1875 -0.5625q0 -0.296875 -0.171875 -0.484375q-0.171875 -0.203125 -0.5 -0.34375q-0.328125 -0.140625 -0.8125 -0.265625l-0.953125 -0.234375q-1.09375 -0.265625 -1.734375 -0.828125q-0.640625 -0.578125 -0.640625 -1.546875q0 -0.796875 0.421875 -1.3906288q0.4375 -0.59375 1.1875 -0.921875q0.75 -0.328125 1.703125 -0.328125q0.96875 0 1.6875 0.328125q0.734375 0.328125 1.140625 0.921875q0.40625 0.5937538 0.421875 1.3750038l-1.765625 0zm5.076477 6.21875l-2.5 -8.734379l2.015625 0l1.453125 6.078129l0.078125 0l1.59375 -6.078129l1.71875 0l1.59375 6.078129l0.078125 0l1.4375 -6.078129l2.015625 0l-2.5 8.734379l-1.796875 0l-1.65625 -5.703125l-0.078125 0l-1.65625 5.703125l-1.796875 0zm12.32074 -8.734379l0 8.734379l-1.84375 0l0 -8.734379l1.84375 0zm1.178894 1.5312538l0 -1.5312538l7.171875 0l0 1.5312538l-2.671875 0l0 7.203125l-1.828125 0l0 -7.203125l-2.671875 0zm15.663147 1.53125l-1.859375 0q-0.046875 -0.359375 -0.21875 -0.640625q-0.15625 -0.28125 -0.40625 -0.484375q-0.234375 -0.203125 -0.5625 -0.3125q-0.3125 -0.109375 -0.6875 -0.109375q-0.6875 0 -1.1875 0.34375q-0.5 0.328125 -0.78125 0.96875q-0.28125 0.640625 -0.28125 1.546875q0 0.921875 0.28125 1.5625q0.28125 0.640625 0.78125 0.96875q0.515625 0.3125 1.171875 0.3125q0.375 0 0.6875 -0.09375q0.3125 -0.09375 0.5625 -0.28125q0.25 -0.203125 0.40625 -0.46875q0.171875 -0.28125 0.234375 -0.625l1.859375 0.015625q-0.0625 0.59375 -0.359375 1.15625q-0.28125 0.546875 -0.765625 0.984375q-0.484375 0.4375 -1.15625 0.703125q-0.65625 0.25 -1.5 0.25q-1.171875 0 -2.09375 -0.53125q-0.90625 -0.53125 -1.4375 -1.53125q-0.53125 -1.0 -0.53125 -2.421875q0 -1.4375 0.53125 -2.4375q0.53125 -1.0000038 1.453125 -1.5156288q0.921875 -0.53125 2.078125 -0.53125q0.75 0 1.40625 0.21875q0.65625 0.203125 1.15625 0.609375q0.5 0.40625 0.8125 1.0000038q0.328125 0.578125 0.40625 1.34375zm1.3378296 5.671875l0 -8.734379l1.84375 0l0 3.6093788l3.734375 0l0 -3.6093788l1.84375 0l0 8.734379l-1.84375 0l0 -3.609375l-3.734375 0l0 3.609375l-1.84375 0z" fill-rule="nonzero"/><path fill="#ffffff" d="m593.23157 77.95741l2.265625 0l2.40625 5.875l0.109375 0l2.390625 -5.875l2.28125 0l0 8.734375l-1.796875 0l0 -5.6875l-0.0625 0l-2.265625 5.640625l-1.21875 0l-2.25 -5.65625l-0.078125 0l0 5.703125l-1.78125 0l0 -8.734375zm18.992615 4.375q0 1.421875 -0.546875 2.421875q-0.53125 1.0 -1.46875 1.53125q-0.921875 0.53125 -2.078125 0.53125q-1.15625 0 -2.09375 -0.53125q-0.921875 -0.53125 -1.453125 -1.53125q-0.53125 -1.0 -0.53125 -2.421875q0 -1.4375 0.53125 -2.4375q0.53125 -1.0 1.453125 -1.515625q0.9375 -0.53125 2.09375 -0.53125q1.15625 0 2.078125 0.53125q0.9375 0.515625 1.46875 1.515625q0.546875 1.0 0.546875 2.4375zm-1.875 0q0 -0.921875 -0.28125 -1.5625q-0.265625 -0.640625 -0.765625 -0.96875q-0.5 -0.328125 -1.171875 -0.328125q-0.671875 0 -1.171875 0.328125q-0.484375 0.328125 -0.765625 0.96875q-0.28125 0.640625 -0.28125 1.5625q0 0.921875 0.28125 1.5625q0.28125 0.625 0.765625 0.953125q0.5 0.328125 1.171875 0.328125q0.671875 0 1.171875 -0.328125q0.5 -0.328125 0.765625 -0.953125q0.28125 -0.640625 0.28125 -1.5625zm6.3363647 4.359375l-3.09375 0l0 -8.734375l3.109375 0q1.3125 0 2.265625 0.53125q0.953125 0.515625 1.46875 1.5q0.515625 0.96875 0.515625 2.328125q0 1.359375 -0.515625 2.34375q-0.515625 0.984375 -1.46875 1.515625q-0.953125 0.515625 -2.28125 0.515625zm-1.25 -1.578125l1.171875 0q0.8125 0 1.375 -0.296875q0.5625 -0.296875 0.84375 -0.90625q0.28125 -0.609375 0.28125 -1.59375q0 -0.96875 -0.28125 -1.578125q-0.28125 -0.609375 -0.84375 -0.890625q-0.5625 -0.296875 -1.375 -0.296875l-1.171875 0l0 5.5625zm6.883301 1.578125l0 -8.734375l5.875 0l0 1.53125l-4.03125 0l0 2.078125l3.734375 0l0 1.515625l-3.734375 0l0 2.09375l4.046875 0l0 1.515625l-5.890625 0z" fill-rule="nonzero"/><path fill="#eeeeee" d="m494.24933 220.60893l105.921265 0l0 60.850388l-105.921265 0z" fill-rule="evenodd"/><path fill="#3c5b64" d="m505.62433 232.16743l0 7.9375l-1.6875 0l0 -7.9375l1.6875 0zm8.017212 0l0 7.9375l-1.4375 0l-3.46875 -5.0l-0.046875 0l0 5.0l-1.6875 0l0 -7.9375l1.484375 0l3.421875 4.984375l0.0625 0l0 -4.984375l1.671875 0zm5.0755615 3.3125l0 1.3125l-3.625 0l0 -1.3125l3.625 0zm2.807251 4.625l-1.796875 0l2.734375 -7.9375l2.171875 0l2.734375 7.9375l-1.796875 0l-2.0 -6.125l-0.0625 0l-1.984375 6.125zm-0.109375 -3.125l4.25 0l0 1.3125l-4.25 0l0 -1.3125zm6.90271 3.125l0 -7.9375l3.140625 0q0.90625 0 1.53125 0.34375q0.640625 0.34375 0.96875 0.953125q0.34375 0.59375 0.34375 1.390625q0 0.796875 -0.34375 1.40625q-0.34375 0.59375 -0.984375 0.9375q-0.640625 0.328125 -1.5625 0.328125l-2.0 0l0 -1.34375l1.734375 0q0.484375 0 0.796875 -0.171875q0.3125 -0.171875 0.46875 -0.46875q0.15625 -0.296875 0.15625 -0.6875q0 -0.390625 -0.15625 -0.6875q-0.15625 -0.296875 -0.484375 -0.46875q-0.3125 -0.171875 -0.796875 -0.171875l-1.125 0l0 6.578125l-1.6875 0zm7.074524 0l0 -7.9375l3.140625 0q0.90625 0 1.53125 0.34375q0.640625 0.34375 0.96875 0.953125q0.34375 0.59375 0.34375 1.390625q0 0.796875 -0.34375 1.40625q-0.34375 0.59375 -0.984375 0.9375q-0.640625 0.328125 -1.5625 0.328125l-2.0 0l0 -1.34375l1.734375 0q0.484375 0 0.796875 -0.171875q0.3125 -0.171875 0.46875 -0.46875q0.15625 -0.296875 0.15625 -0.6875q0 -0.390625 -0.15625 -0.6875q-0.15625 -0.296875 -0.484375 -0.46875q-0.3125 -0.171875 -0.796875 -0.171875l-1.125 0l0 6.578125l-1.6875 0zm12.01355 0.109375q-0.828125 0 -1.421875 -0.28125q-0.59375 -0.296875 -0.921875 -0.796875q-0.3125 -0.515625 -0.3125 -1.140625q0 -0.46875 0.1875 -0.828125q0.1875 -0.359375 0.515625 -0.65625q0.34375 -0.3125 0.78125 -0.609375l1.53125 -1.015625q0.3125 -0.1875 0.4375 -0.390625q0.140625 -0.21875 0.140625 -0.46875q0 -0.234375 -0.1875 -0.4375q-0.1875 -0.203125 -0.53125 -0.203125q-0.234375 0 -0.40625 0.109375q-0.171875 0.09375 -0.265625 0.265625q-0.09375 0.15625 -0.09375 0.359375q0 0.25 0.140625 0.515625q0.140625 0.25 0.359375 0.53125q0.234375 0.28125 0.515625 0.609375l3.765625 4.328125l-1.71875 0l-3.140625 -3.5q-0.3125 -0.34375 -0.625 -0.734375q-0.296875 -0.390625 -0.515625 -0.828125q-0.203125 -0.4375 -0.203125 -0.953125q0 -0.5625 0.265625 -1.03125q0.28125 -0.46875 0.765625 -0.734375q0.484375 -0.265625 1.140625 -0.265625q0.640625 0 1.09375 0.265625q0.46875 0.25 0.71875 0.671875q0.25 0.421875 0.25 0.9375q0 0.5625 -0.28125 1.015625q-0.265625 0.453125 -0.765625 0.8125l-1.625 1.171875q-0.328125 0.234375 -0.484375 0.484375q-0.15625 0.25 -0.15625 0.484375q0 0.28125 0.125 0.515625q0.140625 0.21875 0.390625 0.359375q0.265625 0.125 0.609375 0.125q0.421875 0 0.828125 -0.1875q0.40625 -0.203125 0.734375 -0.546875q0.34375 -0.359375 0.546875 -0.84375q0.203125 -0.5 0.203125 -1.09375l1.375 0q0 0.734375 -0.15625 1.3125q-0.15625 0.578125 -0.453125 1.015625q-0.28125 0.4375 -0.640625 0.703125q-0.125 0.078125 -0.234375 0.15625q-0.09375 0.0625 -0.21875 0.125q-0.4375 0.359375 -0.984375 0.515625q-0.546875 0.15625 -1.078125 0.15625z" fill-rule="nonzero"/><path fill="#3c5b64" d="m508.24933 249.53668q-0.046875 -0.46875 -0.40625 -0.71875q-0.34375 -0.265625 -0.953125 -0.265625q-0.40625 0 -0.6875 0.109375q-0.28125 0.109375 -0.4375 0.3125q-0.15625 0.203125 -0.15625 0.453125q0 0.21875 0.09375 0.375q0.109375 0.15625 0.28125 0.28125q0.171875 0.109375 0.390625 0.203125q0.234375 0.078125 0.5 0.125l0.71875 0.171875q0.515625 0.125 0.9375 0.328125q0.4375 0.1875 0.75 0.46875q0.328125 0.28125 0.5 0.671875q0.1875 0.375 0.1875 0.875q0 0.71875 -0.375 1.265625q-0.359375 0.53125 -1.046875 0.828125q-0.6875 0.28125 -1.65625 0.28125q-0.96875 0 -1.6875 -0.296875q-0.703125 -0.296875 -1.109375 -0.875q-0.390625 -0.578125 -0.40625 -1.4375l1.625 0q0.03125 0.40625 0.234375 0.671875q0.203125 0.265625 0.546875 0.40625q0.34375 0.125 0.765625 0.125q0.4375 0 0.75 -0.125q0.3125 -0.125 0.484375 -0.34375q0.171875 -0.21875 0.171875 -0.5q0 -0.28125 -0.15625 -0.453125q-0.15625 -0.1875 -0.453125 -0.3125q-0.296875 -0.125 -0.734375 -0.234375l-0.859375 -0.21875q-1.015625 -0.25 -1.59375 -0.765625q-0.578125 -0.515625 -0.578125 -1.390625q0 -0.734375 0.390625 -1.265625q0.390625 -0.546875 1.0625 -0.84375q0.6875 -0.296875 1.5625 -0.296875q0.875 0 1.53125 0.296875q0.671875 0.296875 1.03125 0.84375q0.375 0.53125 0.390625 1.25l-1.609375 0zm4.5271606 -2.28125l0 7.9375l-1.6875305 0l0 -7.9375l1.6875305 0zm1.3765869 0l2.078125 0l2.1875 5.328125l0.09375 0l2.1875 -5.328125l2.0625 0l0 7.9375l-1.625 0l0 -5.171875l-0.0625 0l-2.0625 5.140625l-1.109375 0l-2.046875 -5.15625l-0.078125 0l0 5.1875l-1.625 0l0 -7.9375zm9.991211 7.9375l0 -7.9375l3.140625 0q0.90625 0 1.53125 0.34375q0.640625 0.34375 0.96875 0.953125q0.34375 0.59375 0.34375 1.390625q0 0.796875 -0.34375 1.40625q-0.34375 0.59375 -0.984375 0.9375q-0.640625 0.328125 -1.5625 0.328125l-2.0 0l0 -1.34375l1.734375 0q0.484375 0 0.796875 -0.171875q0.3125 -0.171875 0.46875 -0.46875q0.15625 -0.296875 0.15625 -0.6875q0 -0.390625 -0.15625 -0.6875q-0.15625 -0.296875 -0.484375 -0.46875q-0.3125 -0.171875 -0.796875 -0.171875l-1.125 0l0 6.578125l-1.6875 0zm7.074585 0l0 -7.9375l1.6875 0l0 6.546875l3.40625 0l0 1.390625l-5.09375 0zm6.197998 0l0 -7.9375l5.359375 0l0 1.375l-3.671875 0l0 1.890625l3.390625 0l0 1.390625l-3.390625 0l0 1.890625l3.6875 0l0 1.390625l-5.375 0zm9.223267 0l0 -7.9375l3.140625 0q0.890625 0 1.53125 0.328125q0.640625 0.3125 0.96875 0.890625q0.34375 0.578125 0.34375 1.375q0 0.78125 -0.34375 1.359375q-0.34375 0.5625 -0.984375 0.875q-0.640625 0.296875 -1.5625 0.296875l-2.09375 0l0 -1.359375l1.828125 0q0.46875 0 0.78125 -0.125q0.328125 -0.125 0.484375 -0.390625q0.15625 -0.265625 0.15625 -0.65625q0 -0.40625 -0.15625 -0.671875q-0.15625 -0.265625 -0.484375 -0.40625q-0.3125 -0.15625 -0.796875 -0.15625l-1.125 0l0 6.578125l-1.6875 0zm4.296875 -3.609375l1.96875 3.609375l-1.859375 0l-1.921875 -3.609375l1.8125 0zm2.8707886 3.609375l0 -7.9375l5.359375 0l0 1.375l-3.671875 0l0 1.890625l3.390625 0l0 1.390625l-3.390625 0l0 1.890625l3.6875 0l0 1.390625l-5.375 0zm8.128052 -7.9375l1.921875 6.03125l0.078125 0l1.921875 -6.03125l1.859375 0l-2.734375 7.9375l-2.171875 0l-2.734375 -7.9375l1.859375 0zm8.418335 0l0 7.9375l-1.6875 0l0 -7.9375l1.6875 0zm1.3765869 7.9375l0 -7.9375l5.359375 0l0 1.375l-3.671875 0l0 1.890625l3.390625 0l0 1.390625l-3.390625 0l0 1.890625l3.6875 0l0 1.390625l-5.375 0zm8.487427 0l-2.28125 -7.9375l1.84375 0l1.3125 5.515625l0.0625 0l1.453125 -5.515625l1.5625 0l1.453125 5.53125l0.0625 0l1.328125 -5.53125l1.828125 0l-2.28125 7.9375l-1.625 0l-1.515625 -5.1875l-0.0625 0l-1.515625 5.1875l-1.625 0z" fill-rule="nonzero"/><path fill="#3c5b64" d="m503.93683 270.2809l0 -7.9375l3.140625 0q0.90625 0 1.53125 0.34375q0.640625 0.34375 0.96875 0.953125q0.34375 0.59375 0.34375 1.390625q0 0.796875 -0.34375 1.40625q-0.34375 0.59375 -0.984375 0.9375q-0.640625 0.328125 -1.5625 0.328125l-2.0 0l0 -1.34375l1.734375 0q0.484375 0 0.796875 -0.171875q0.3125 -0.171875 0.46875 -0.46875q0.15625 -0.296875 0.15625 -0.6875q0 -0.390625 -0.15625 -0.6875q-0.15625 -0.296875 -0.484375 -0.46875q-0.3125 -0.171875 -0.796875 -0.171875l-1.125 0l0 6.578125l-1.6875 0zm7.0745544 0l0 -7.9375l3.1406555 0q0.890625 0 1.53125 0.328125q0.640625 0.3125 0.96875 0.890625q0.34375 0.578125 0.34375 1.375q0 0.78125 -0.34375 1.359375q-0.34375 0.5625 -0.984375 0.875q-0.640625 0.296875 -1.5625 0.296875l-2.09375 0l0 -1.359375l1.828125 0q0.46875 0 0.78125 -0.125q0.328125 -0.125 0.484375 -0.390625q0.15625 -0.265625 0.15625 -0.65625q0 -0.40625 -0.15625 -0.671875q-0.15625 -0.265625 -0.484375 -0.40625q-0.3125 -0.15625 -0.796875 -0.15625l-1.125 0l0 6.578125l-1.6875305 0zm4.2969055 -3.609375l1.96875 3.609375l-1.859375 0l-1.921875 -3.609375l1.8125 0zm10.167603 -0.359375q0 1.296875 -0.484375 2.21875q-0.484375 0.90625 -1.328125 1.390625q-0.84375 0.46875 -1.90625 0.46875q-1.046875 0 -1.890625 -0.484375q-0.84375 -0.484375 -1.34375 -1.390625q-0.484375 -0.90625 -0.484375 -2.203125q0 -1.296875 0.484375 -2.203125q0.5 -0.921875 1.34375 -1.390625q0.84375 -0.484375 1.890625 -0.484375q1.0625 0 1.90625 0.484375q0.84375 0.46875 1.328125 1.390625q0.484375 0.90625 0.484375 2.203125zm-1.703125 0q0 -0.84375 -0.25 -1.421875q-0.25 -0.578125 -0.703125 -0.875q-0.453125 -0.296875 -1.0625 -0.296875q-0.609375 0 -1.0625 0.296875q-0.453125 0.296875 -0.703125 0.875q-0.25 0.578125 -0.25 1.421875q0 0.84375 0.25 1.421875q0.25 0.578125 0.703125 0.875q0.453125 0.296875 1.0625 0.296875q0.609375 0 1.0625 -0.296875q0.453125 -0.296875 0.703125 -0.875q0.25 -0.578125 0.25 -1.421875zm9.962585 -1.1875l-1.703125 0q-0.046875 -0.328125 -0.1875 -0.59375q-0.140625 -0.265625 -0.375 -0.4375q-0.21875 -0.1875 -0.515625 -0.28125q-0.296875 -0.09375 -0.625 -0.09375q-0.625 0 -1.09375 0.3125q-0.453125 0.296875 -0.703125 0.875q-0.25 0.578125 -0.25 1.40625q0 0.84375 0.25 1.421875q0.265625 0.578125 0.71875 0.875q0.453125 0.296875 1.0625 0.296875q0.328125 0 0.609375 -0.09375q0.296875 -0.09375 0.515625 -0.265625q0.234375 -0.171875 0.375 -0.40625q0.15625 -0.25 0.21875 -0.578125l1.703125 0.015625q-0.0625 0.546875 -0.328125 1.0625q-0.265625 0.5 -0.703125 0.890625q-0.4375 0.390625 -1.046875 0.625q-0.609375 0.234375 -1.375 0.234375q-1.0625 0 -1.90625 -0.484375q-0.828125 -0.484375 -1.3125 -1.390625q-0.484375 -0.90625 -0.484375 -2.203125q0 -1.296875 0.484375 -2.203125q0.5 -0.921875 1.328125 -1.390625q0.84375 -0.484375 1.890625 -0.484375q0.6875 0 1.28125 0.1875q0.59375 0.1875 1.046875 0.5625q0.46875 0.375 0.75 0.90625q0.296875 0.53125 0.375 1.234375zm1.1992188 5.15625l0 -7.9375l5.359375 0l0 1.375l-3.671875 0l0 1.890625l3.390625 0l0 1.390625l-3.390625 0l0 1.890625l3.6875 0l0 1.390625l-5.375 0zm11.003052 -5.65625q-0.046875 -0.46875 -0.40625 -0.71875q-0.34375 -0.265625 -0.953125 -0.265625q-0.40625 0 -0.6875 0.109375q-0.28125 0.109375 -0.4375 0.3125q-0.15625 0.203125 -0.15625 0.453125q0 0.21875 0.09375 0.375q0.109375 0.15625 0.28125 0.28125q0.171875 0.109375 0.390625 0.203125q0.234375 0.078125 0.5 0.125l0.71875 0.171875q0.515625 0.125 0.9375 0.328125q0.4375 0.1875 0.75 0.46875q0.328125 0.28125 0.5 0.671875q0.1875 0.375 0.1875 0.875q0 0.71875 -0.375 1.265625q-0.359375 0.53125 -1.046875 0.828125q-0.6875 0.28125 -1.65625 0.28125q-0.96875 0 -1.6875 -0.296875q-0.703125 -0.296875 -1.109375 -0.875q-0.390625 -0.578125 -0.40625 -1.4375l1.625 0q0.03125 0.40625 0.234375 0.671875q0.203125 0.265625 0.546875 0.40625q0.34375 0.125 0.765625 0.125q0.4375 0 0.75 -0.125q0.3125 -0.125 0.484375 -0.34375q0.171875 -0.21875 0.171875 -0.5q0 -0.28125 -0.15625 -0.453125q-0.15625 -0.1875 -0.453125 -0.3125q-0.296875 -0.125 -0.734375 -0.234375l-0.859375 -0.21875q-1.015625 -0.25 -1.59375 -0.765625q-0.578125 -0.515625 -0.578125 -1.390625q0 -0.734375 0.390625 -1.265625q0.390625 -0.546875 1.0625 -0.84375q0.6875 -0.296875 1.5625 -0.296875q0.875 0 1.53125 0.296875q0.671875 0.296875 1.03125 0.84375q0.375 0.53125 0.390625 1.25l-1.609375 0zm7.1521606 0q-0.046875 -0.46875 -0.40625 -0.71875q-0.34375 -0.265625 -0.953125 -0.265625q-0.40625 0 -0.6875 0.109375q-0.28125 0.109375 -0.4375 0.3125q-0.15625 0.203125 -0.15625 0.453125q0 0.21875 0.09375 0.375q0.109375 0.15625 0.28125 0.28125q0.171875 0.109375 0.390625 0.203125q0.234375 0.078125 0.5 0.125l0.71875 0.171875q0.515625 0.125 0.9375 0.328125q0.4375 0.1875 0.75 0.46875q0.328125 0.28125 0.5 0.671875q0.1875 0.375 0.1875 0.875q0 0.71875 -0.375 1.265625q-0.359375 0.53125 -1.046875 0.828125q-0.6875 0.28125 -1.65625 0.28125q-0.96875 0 -1.6875 -0.296875q-0.703125 -0.296875 -1.109375 -0.875q-0.390625 -0.578125 -0.40625 -1.4375l1.625 0q0.03125 0.40625 0.234375 0.671875q0.203125 0.265625 0.546875 0.40625q0.34375 0.125 0.765625 0.125q0.4375 0 0.75 -0.125q0.3125 -0.125 0.484375 -0.34375q0.171875 -0.21875 0.171875 -0.5q0 -0.28125 -0.15625 -0.453125q-0.15625 -0.1875 -0.453125 -0.3125q-0.296875 -0.125 -0.734375 -0.234375l-0.859375 -0.21875q-1.015625 -0.25 -1.59375 -0.765625q-0.578125 -0.515625 -0.578125 -1.390625q0 -0.734375 0.390625 -1.265625q0.390625 -0.546875 1.0625 -0.84375q0.6875 -0.296875 1.5625 -0.296875q0.875 0 1.53125 0.296875q0.671875 0.296875 1.03125 0.84375q0.375 0.53125 0.390625 1.25l-1.609375 0z" fill-rule="nonzero"/><path fill="#eeeeee" d="m652.0236 115.15199l105.921265 0l0 45.826767l-105.921265 0z" fill-rule="evenodd"/><path fill="#3c5b64" d="m665.8986 128.87637q-0.046875 -0.46875 -0.390625 -0.71875q-0.34375 -0.25000763 -0.9375 -0.25000763q-0.390625 0 -0.671875 0.10938263q-0.28125 0.109375 -0.421875 0.3125q-0.140625 0.1875 -0.140625 0.4375q-0.015625 0.21875 0.078125 0.375q0.109375 0.15625 0.265625 0.265625q0.171875 0.109375 0.390625 0.1875q0.234375 0.078125 0.484375 0.140625l0.703125 0.171875q0.5 0.109375 0.921875 0.296875q0.421875 0.1875 0.734375 0.46875q0.3125 0.265625 0.484375 0.640625q0.171875 0.375 0.171875 0.859375q0 0.71875 -0.359375 1.234375q-0.359375 0.515625 -1.03125 0.8125q-0.671875 0.28125 -1.609375 0.28125q-0.9375 0 -1.640625 -0.28125q-0.6875 -0.296875 -1.078125 -0.859375q-0.390625 -0.5625 -0.40625 -1.40625l1.59375 0q0.015625 0.390625 0.21875 0.65625q0.203125 0.25 0.53125 0.390625q0.34375 0.125 0.765625 0.125q0.40625 0 0.71875 -0.109375q0.3125 -0.125 0.484375 -0.34375q0.171875 -0.21875 0.171875 -0.5q0 -0.265625 -0.15625 -0.4375q-0.15625 -0.171875 -0.453125 -0.296875q-0.296875 -0.125 -0.71875 -0.234375l-0.84375 -0.203125q-0.96875 -0.25 -1.546875 -0.75q-0.5625 -0.515625 -0.5625 -1.375q0 -0.703125 0.375 -1.2187576q0.390625 -0.53125 1.046875 -0.828125q0.671875 -0.296875 1.515625 -0.296875q0.859375 0 1.5 0.296875q0.65625 0.296875 1.015625 0.828125q0.359375 0.5156326 0.375 1.2187576l-1.578125 0zm2.4780273 -0.8906326l0 -1.34375l6.375 0l0 1.34375l-2.375 0l0 6.4062576l-1.625 0l0 -6.4062576l-2.375 0zm14.199036 2.5312576q0 1.265625 -0.484375 2.15625q-0.46875 0.890625 -1.296875 1.359375q-0.828125 0.46875 -1.84375 0.46875q-1.03125 0 -1.859375 -0.46875q-0.828125 -0.46875 -1.3125 -1.359375q-0.46875 -0.890625 -0.46875 -2.15625q0 -1.265625 0.46875 -2.15625q0.484375 -0.8906326 1.3125 -1.3593826q0.828125 -0.46875 1.859375 -0.46875q1.015625 0 1.84375 0.46875q0.828125 0.46875 1.296875 1.3593826q0.484375 0.890625 0.484375 2.15625zm-1.65625 0q0 -0.828125 -0.25 -1.390625q-0.25 -0.5625 -0.6875 -0.84375q-0.4375 -0.29688263 -1.03125 -0.29688263q-0.59375 0 -1.046875 0.29688263q-0.4375 0.28125 -0.6875 0.84375q-0.234375 0.5625 -0.234375 1.390625q0 0.828125 0.234375 1.390625q0.25 0.5625 0.6875 0.859375q0.453125 0.28125 1.046875 0.28125q0.59375 0 1.03125 -0.28125q0.4375 -0.296875 0.6875 -0.859375q0.25 -0.5625 0.25 -1.390625zm2.8640137 3.875l0 -7.7500076l3.0625 0q0.875 0 1.5 0.3125q0.625 0.3125 0.953125 0.890625q0.328125 0.5625076 0.328125 1.3281326q0 0.765625 -0.34375 1.328125q-0.328125 0.546875 -0.96875 0.84375q-0.625 0.296875 -1.515625 0.296875l-2.046875 0l0 -1.3125l1.78125 0q0.46875 0 0.78125 -0.125q0.3125 -0.140625 0.46875 -0.390625q0.15625 -0.265625 0.15625 -0.640625q0 -0.390625 -0.15625 -0.65625q-0.15625 -0.265625 -0.46875 -0.390625q-0.3125 -0.14063263 -0.78125 -0.14063263l-1.109375 0l0 6.4062576l-1.640625 0zm4.1875 -3.53125l1.921875 3.53125l-1.8125 0l-1.875 -3.53125l1.765625 0zm2.0305176 -4.2187576l1.84375 0l1.765625 3.3437576l0.0625 0l1.78125 -3.3437576l1.828125 0l-2.828125 5.0156326l0 2.734375l-1.625 0l0 -2.734375l-2.828125 -5.0156326z" fill-rule="nonzero"/><path fill="#3c5b64" d="m668.53925 144.08075l-1.65625 0q-0.046875 -0.328125 -0.1875 -0.578125q-0.140625 -0.25 -0.359375 -0.421875q-0.21875 -0.1875 -0.515625 -0.28125q-0.28125 -0.09375 -0.609375 -0.09375q-0.609375 0 -1.0625 0.296875q-0.4375 0.296875 -0.6875 0.859375q-0.234375 0.5625 -0.234375 1.375q0 0.828125 0.234375 1.390625q0.25 0.5625 0.703125 0.859375q0.453125 0.28125 1.03125 0.28125q0.328125 0 0.609375 -0.078125q0.28125 -0.09375 0.5 -0.265625q0.21875 -0.171875 0.359375 -0.40625q0.15625 -0.25 0.21875 -0.5625l1.65625 0.015625q-0.0625 0.53125 -0.328125 1.03125q-0.25 0.484375 -0.6875 0.875q-0.421875 0.390625 -1.015625 0.625q-0.59375 0.21875 -1.34375 0.21875q-1.03125 0 -1.84375 -0.46875q-0.8125 -0.46875 -1.296875 -1.359375q-0.46875 -0.890625 -0.46875 -2.15625q0 -1.265625 0.46875 -2.15625q0.484375 -0.890625 1.296875 -1.359375q0.828125 -0.46875 1.84375 -0.46875q0.6875 0 1.25 0.1875q0.578125 0.1875 1.03125 0.5625q0.453125 0.359375 0.734375 0.890625q0.28125 0.515625 0.359375 1.1875zm1.1711426 5.03125l0 -7.75l3.0625 0q0.875 0 1.5 0.3125q0.625 0.3125 0.953125 0.890625q0.328125 0.5625 0.328125 1.328125q0 0.765625 -0.34375 1.328125q-0.328125 0.546875 -0.96875 0.84375q-0.625 0.296875 -1.515625 0.296875l-2.046875 0l0 -1.3125l1.78125 0q0.46875 0 0.78125 -0.125q0.3125 -0.140625 0.46875 -0.390625q0.15625 -0.265625 0.15625 -0.640625q0 -0.390625 -0.15625 -0.65625q-0.15625 -0.265625 -0.46875 -0.390625q-0.3125 -0.140625 -0.78125 -0.140625l-1.109375 0l0 6.40625l-1.640625 0zm4.1875 -3.53125l1.921875 3.53125l-1.8125 0l-1.875 -3.53125l1.765625 0zm2.805664 3.53125l0 -7.75l5.21875 0l0 1.34375l-3.578125 0l0 1.859375l3.3125 0l0 1.34375l-3.3125 0l0 1.859375l3.59375 0l0 1.34375l-5.234375 0zm7.87146 0l-1.765625 0l2.671875 -7.75l2.125 0l2.671875 7.75l-1.765625 0l-1.9375 -5.984375l-0.0625 0l-1.9375 5.984375zm-0.109375 -3.046875l4.140625 0l0 1.28125l-4.140625 0l0 -1.28125zm5.4837036 -3.359375l0 -1.34375l6.375 0l0 1.34375l-2.375 0l0 6.40625l-1.625 0l0 -6.40625l-2.375 0zm9.059326 -1.34375l0 7.75l-1.640625 0l0 -7.75l1.640625 0zm8.473877 3.875q0 1.265625 -0.484375 2.15625q-0.46875 0.890625 -1.296875 1.359375q-0.828125 0.46875 -1.84375 0.46875q-1.03125 0 -1.859375 -0.46875q-0.828125 -0.46875 -1.3125 -1.359375q-0.46875 -0.890625 -0.46875 -2.15625q0 -1.265625 0.46875 -2.15625q0.484375 -0.890625 1.3125 -1.359375q0.828125 -0.46875 1.859375 -0.46875q1.015625 0 1.84375 0.46875q0.828125 0.46875 1.296875 1.359375q0.484375 0.890625 0.484375 2.15625zm-1.65625 0q0 -0.828125 -0.25 -1.390625q-0.25 -0.5625 -0.6875 -0.84375q-0.4375 -0.296875 -1.03125 -0.296875q-0.59375 0 -1.046875 0.296875q-0.4375 0.28125 -0.6875 0.84375q-0.234375 0.5625 -0.234375 1.390625q0 0.828125 0.234375 1.390625q0.25 0.5625 0.6875 0.859375q0.453125 0.28125 1.046875 0.28125q0.59375 0 1.03125 -0.28125q0.4375 -0.296875 0.6875 -0.859375q0.25 -0.5625 0.25 -1.390625zm9.348389 -3.875l0 7.75l-1.421875 0l-3.359375 -4.875l-0.0625 0l0 4.875l-1.640625 0l0 -7.75l1.4375 0l3.34375 4.875l0.078125 0l0 -4.875l1.625 0z" fill-rule="nonzero"/><path fill="#f0603c" d="m374.10562 161.65417l130.67715 0l0 50.960632l-130.67715 0z" fill-rule="evenodd"/><path fill="#ffffff" d="m391.55875 175.9263l-1.859375 0q-0.046875 -0.359375 -0.21875 -0.640625q-0.15625 -0.28125 -0.40625 -0.484375q-0.234375 -0.203125 -0.5625 -0.3125q-0.3125 -0.109375 -0.6875 -0.109375q-0.6875 0 -1.1875 0.34375q-0.5 0.328125 -0.78125 0.96875q-0.28125 0.640625 -0.28125 1.546875q0 0.921875 0.28125 1.5625q0.28125 0.640625 0.78125 0.96875q0.515625 0.3125 1.171875 0.3125q0.375 0 0.6875 -0.09375q0.3125 -0.09375 0.5625 -0.28125q0.25 -0.203125 0.40625 -0.46875q0.171875 -0.28125 0.234375 -0.625l1.859375 0.015625q-0.0625 0.59375 -0.359375 1.15625q-0.28125 0.546875 -0.765625 0.984375q-0.484375 0.4375 -1.15625 0.703125q-0.65625 0.25 -1.5 0.25q-1.171875 0 -2.09375 -0.53125q-0.90625 -0.53125 -1.4375 -1.53125q-0.53125 -1.0 -0.53125 -2.421875q0 -1.4375 0.53125 -2.4375q0.53125 -1.0 1.453125 -1.515625q0.921875 -0.53125 2.078125 -0.53125q0.75 0 1.40625 0.21875q0.65625 0.203125 1.15625 0.609375q0.5 0.40625 0.8125 1.0q0.328125 0.578125 0.40625 1.34375zm1.3378601 5.671875l0 -8.734375l3.4375 0q0.984375 0 1.6875 0.359375q0.703125 0.34375 1.0625 1.0q0.375 0.640625 0.375 1.5q0 0.875 -0.375 1.5q-0.375 0.609375 -1.09375 0.953125q-0.703125 0.328125 -1.703125 0.328125l-2.3125 0l0 -1.484375l2.015625 0q0.53125 0 0.875 -0.140625q0.34375 -0.140625 0.515625 -0.4375q0.171875 -0.296875 0.171875 -0.71875q0 -0.4375 -0.171875 -0.734375q-0.171875 -0.296875 -0.53125 -0.453125q-0.34375 -0.15625 -0.875 -0.15625l-1.234375 0l0 7.21875l-1.84375 0zm4.703125 -3.96875l2.171875 3.96875l-2.03125 0l-2.125 -3.96875l1.984375 0zm11.187286 -0.390625q0 1.421875 -0.546875 2.421875q-0.53125 1.0 -1.46875 1.53125q-0.921875 0.53125 -2.078125 0.53125q-1.15625 0 -2.09375 -0.53125q-0.921875 -0.53125 -1.453125 -1.53125q-0.53125 -1.0 -0.53125 -2.421875q0 -1.4375 0.53125 -2.4375q0.53125 -1.0 1.453125 -1.515625q0.9375 -0.53125 2.09375 -0.53125q1.15625 0 2.078125 0.53125q0.9375 0.515625 1.46875 1.515625q0.546875 1.0 0.546875 2.4375zm-1.875 0q0 -0.921875 -0.28125 -1.5625q-0.265625 -0.640625 -0.765625 -0.96875q-0.5 -0.328125 -1.171875 -0.328125q-0.671875 0 -1.171875 0.328125q-0.484375 0.328125 -0.765625 0.96875q-0.28125 0.640625 -0.28125 1.5625q0 0.921875 0.28125 1.5625q0.28125 0.625 0.765625 0.953125q0.5 0.328125 1.171875 0.328125q0.671875 0 1.171875 -0.328125q0.5 -0.328125 0.765625 -0.953125q0.28125 -0.640625 0.28125 -1.5625zm4.867676 4.359375l-2.5 -8.734375l2.015625 0l1.453125 6.078125l0.078125 0l1.59375 -6.078125l1.71875 0l1.59375 6.078125l0.078125 0l1.4375 -6.078125l2.015625 0l-2.5 8.734375l-1.796875 0l-1.65625 -5.703125l-0.078125 0l-1.65625 5.703125l-1.796875 0zm13.570709 0l-3.09375 0l0 -8.734375l3.109375 0q1.3125 0 2.265625 0.53125q0.953125 0.515625 1.46875 1.5q0.515625 0.96875 0.515625 2.328125q0 1.359375 -0.515625 2.34375q-0.515625 0.984375 -1.46875 1.515625q-0.953125 0.515625 -2.28125 0.515625zm-1.25 -1.578125l1.171875 0q0.8125 0 1.375 -0.296875q0.5625 -0.296875 0.84375 -0.90625q0.28125 -0.609375 0.28125 -1.59375q0 -0.96875 -0.28125 -1.578125q-0.28125 -0.609375 -0.84375 -0.890625q-0.5625 -0.296875 -1.375 -0.296875l-1.171875 0l0 5.5625zm11.617676 -4.640625q-0.0625 -0.515625 -0.453125 -0.796875q-0.375 -0.28125 -1.046875 -0.28125q-0.453125 0 -0.765625 0.125q-0.3125 0.125 -0.484375 0.34375q-0.15625 0.21875 -0.15625 0.5q0 0.234375 0.109375 0.40625q0.109375 0.171875 0.296875 0.296875q0.1875 0.125 0.4375 0.21875q0.25 0.09375 0.546875 0.15625l0.78125 0.1875q0.5625 0.125 1.046875 0.34375q0.484375 0.21875 0.828125 0.53125q0.34375 0.3125 0.53125 0.734375q0.203125 0.421875 0.203125 0.953125q0 0.8125 -0.40625 1.40625q-0.390625 0.578125 -1.15625 0.90625q-0.75 0.3125 -1.8125 0.3125q-1.0625 0 -1.84375 -0.328125q-0.78125 -0.328125 -1.21875 -0.953125q-0.4375 -0.640625 -0.453125 -1.578125l1.78125 0q0.03125 0.4375 0.25 0.734375q0.21875 0.28125 0.59375 0.4375q0.390625 0.140625 0.859375 0.140625q0.46875 0 0.8125 -0.140625q0.359375 -0.140625 0.546875 -0.375q0.1875 -0.25 0.1875 -0.5625q0 -0.296875 -0.171875 -0.484375q-0.171875 -0.203125 -0.5 -0.34375q-0.328125 -0.140625 -0.8125 -0.265625l-0.953125 -0.234375q-1.09375 -0.265625 -1.734375 -0.828125q-0.640625 -0.578125 -0.640625 -1.546875q0 -0.796875 0.421875 -1.390625q0.4375 -0.59375 1.1875 -0.921875q0.75 -0.328125 1.703125 -0.328125q0.96875 0 1.6875 0.328125q0.734375 0.328125 1.140625 0.921875q0.40625 0.59375 0.421875 1.375l-1.765625 0zm11.139008 1.859375q0 1.421875 -0.546875 2.421875q-0.53125 1.0 -1.46875 1.53125q-0.921875 0.53125 -2.078125 0.53125q-1.15625 0 -2.09375 -0.53125q-0.921875 -0.53125 -1.453125 -1.53125q-0.53125 -1.0 -0.53125 -2.421875q0 -1.4375 0.53125 -2.4375q0.53125 -1.0 1.453125 -1.515625q0.9375 -0.53125 2.09375 -0.53125q1.15625 0 2.078125 0.53125q0.9375 0.515625 1.46875 1.515625q0.546875 1.0 0.546875 2.4375zm-1.875 0q0 -0.921875 -0.28125 -1.5625q-0.265625 -0.640625 -0.765625 -0.96875q-0.5 -0.328125 -1.171875 -0.328125q-0.671875 0 -1.171875 0.328125q-0.484375 0.328125 -0.765625 0.96875q-0.28125 0.640625 -0.28125 1.5625q0 0.921875 0.28125 1.5625q0.28125 0.625 0.765625 0.953125q0.5 0.328125 1.171875 0.328125q0.671875 0 1.171875 -0.328125q0.5 -0.328125 0.765625 -0.953125q0.28125 -0.640625 0.28125 -1.5625zm8.63327 -4.375l1.84375 0l0 5.671875q0 0.953125 -0.453125 1.671875q-0.453125 0.71875 -1.28125 1.125q-0.8125 0.390625 -1.890625 0.390625q-1.078125 0 -1.90625 -0.390625q-0.8125 -0.40625 -1.265625 -1.125q-0.4375 -0.71875 -0.4375 -1.671875l0 -5.671875l1.84375 0l0 5.515625q0 0.5 0.21875 0.890625q0.21875 0.390625 0.609375 0.609375q0.40625 0.21875 0.9375 0.21875q0.53125 0 0.921875 -0.21875q0.40625 -0.21875 0.625 -0.609375q0.234375 -0.390625 0.234375 -0.890625l0 -5.515625zm3.3619995 8.734375l0 -8.734375l3.4375 0q0.984375 0 1.6875 0.359375q0.703125 0.34375 1.0625 1.0q0.375 0.640625 0.375 1.5q0 0.875 -0.375 1.5q-0.375 0.609375 -1.09375 0.953125q-0.703125 0.328125 -1.703125 0.328125l-2.3125 0l0 -1.484375l2.015625 0q0.53125 0 0.875 -0.140625q0.34375 -0.140625 0.515625 -0.4375q0.171875 -0.296875 0.171875 -0.71875q0 -0.4375 -0.171875 -0.734375q-0.171875 -0.296875 -0.53125 -0.453125q-0.34375 -0.15625 -0.875 -0.15625l-1.234375 0l0 7.21875l-1.84375 0zm4.703125 -3.96875l2.171875 3.96875l-2.03125 0l-2.125 -3.96875l1.984375 0zm10.859192 -1.703125l-1.859375 0q-0.046875 -0.359375 -0.21875 -0.640625q-0.15625 -0.28125 -0.40625 -0.484375q-0.234375 -0.203125 -0.5625 -0.3125q-0.3125 -0.109375 -0.6875 -0.109375q-0.6875 0 -1.1875 0.34375q-0.5 0.328125 -0.78125 0.96875q-0.28125 0.640625 -0.28125 1.546875q0 0.921875 0.28125 1.5625q0.28125 0.640625 0.78125 0.96875q0.515625 0.3125 1.171875 0.3125q0.375 0 0.6875 -0.09375q0.3125 -0.09375 0.5625 -0.28125q0.25 -0.203125 0.40625 -0.46875q0.171875 -0.28125 0.234375 -0.625l1.859375 0.015625q-0.0625 0.59375 -0.359375 1.15625q-0.28125 0.546875 -0.765625 0.984375q-0.484375 0.4375 -1.15625 0.703125q-0.65625 0.25 -1.5 0.25q-1.171875 0 -2.09375 -0.53125q-0.90625 -0.53125 -1.4375 -1.53125q-0.53125 -1.0 -0.53125 -2.421875q0 -1.4375 0.53125 -2.4375q0.53125 -1.0 1.453125 -1.515625q0.921875 -0.53125 2.078125 -0.53125q0.75 0 1.40625 0.21875q0.65625 0.203125 1.15625 0.609375q0.5 0.40625 0.8125 1.0q0.328125 0.578125 0.40625 1.34375zm1.3378296 5.671875l0 -8.734375l5.875 0l0 1.53125l-4.03125 0l0 2.078125l3.734375 0l0 1.515625l-3.734375 0l0 2.09375l4.046875 0l0 1.515625l-5.890625 0zm10.4444275 0l-3.09375 0l0 -8.734375l3.109375 0q1.3125 0 2.265625 0.53125q0.953125 0.515625 1.46875 1.5q0.515625 0.96875 0.515625 2.328125q0 1.359375 -0.515625 2.34375q-0.515625 0.984375 -1.46875 1.515625q-0.953125 0.515625 -2.28125 0.515625zm-1.25 -1.578125l1.171875 0q0.8125 0 1.375 -0.296875q0.5625 -0.296875 0.84375 -0.90625q0.28125 -0.609375 0.28125 -1.59375q0 -0.96875 -0.28125 -1.578125q-0.28125 -0.609375 -0.84375 -0.890625q-0.5625 -0.296875 -1.375 -0.296875l-1.171875 0l0 5.5625z" fill-rule="nonzero"/><path fill="#ffffff" d="m389.26187 186.5438l1.84375 0l0 5.671875q0 0.953125 -0.453125 1.671875q-0.453125 0.71875 -1.28125 1.125q-0.8125 0.390625 -1.890625 0.390625q-1.078125 0 -1.90625 -0.390625q-0.8125 -0.40625 -1.265625 -1.125q-0.4375 -0.71875 -0.4375 -1.671875l0 -5.671875l1.84375 0l0 5.515625q0 0.5 0.21875 0.890625q0.21875 0.390625 0.609375 0.609375q0.40625 0.21875 0.9375 0.21875q0.53125 0 0.921875 -0.21875q0.40625 -0.21875 0.625 -0.609375q0.234375 -0.390625 0.234375 -0.890625l0 -5.515625zm3.3619995 8.734375l0 -8.734375l3.4375 0q0.984375 0 1.6875 0.390625q0.703125 0.375 1.0625 1.046875q0.375 0.65625 0.375 1.53125q0 0.859375 -0.375 1.53125q-0.375 0.65625 -1.09375 1.03125q-0.703125 0.375 -1.703125 0.375l-2.203125 0l0 -1.484375l1.90625 0q0.53125 0 0.875 -0.171875q0.34375 -0.1875 0.515625 -0.515625q0.171875 -0.34375 0.171875 -0.765625q0 -0.4375 -0.171875 -0.765625q-0.171875 -0.328125 -0.515625 -0.5q-0.34375 -0.1875 -0.890625 -0.1875l-1.234375 0l0 7.21875l-1.84375 0zm10.8663025 0l-3.09375 0l0 -8.734375l3.109375 0q1.3125 0 2.265625 0.53125q0.953125 0.515625 1.46875 1.5q0.515625 0.96875 0.515625 2.328125q0 1.359375 -0.515625 2.34375q-0.515625 0.984375 -1.46875 1.515625q-0.953125 0.515625 -2.28125 0.515625zm-1.25 -1.578125l1.171875 0q0.8125 0 1.375 -0.296875q0.5625 -0.296875 0.84375 -0.90625q0.28125 -0.609375 0.28125 -1.59375q0 -0.96875 -0.28125 -1.578125q-0.28125 -0.609375 -0.84375 -0.890625q-0.5625 -0.296875 -1.375 -0.296875l-1.171875 0l0 5.5625zm7.8932495 1.578125l-1.984375 0l3.015625 -8.734375l2.375 0l3.015625 8.734375l-1.984375 0l-2.1875 -6.734375l-0.0625 0l-2.1875 6.734375zm-0.125 -3.4375l4.671875 0l0 1.453125l-4.671875 0l0 -1.453125zm6.1815796 -3.765625l0 -1.53125l7.171875 0l0 1.53125l-2.671875 0l0 7.203125l-1.828125 0l0 -7.203125l-2.671875 0zm8.363434 7.203125l0 -8.734375l5.875 0l0 1.53125l-4.03125 0l0 2.078125l3.734375 0l0 1.515625l-3.734375 0l0 2.09375l4.046875 0l0 1.515625l-5.890625 0zm12.085022 -6.21875q-0.0625 -0.515625 -0.453125 -0.796875q-0.375 -0.28125 -1.046875 -0.28125q-0.453125 0 -0.765625 0.125q-0.3125 0.125 -0.484375 0.34375q-0.15625 0.21875 -0.15625 0.5q0 0.234375 0.109375 0.40625q0.109375 0.171875 0.296875 0.296875q0.1875 0.125 0.4375 0.21875q0.25 0.09375 0.546875 0.15625l0.78125 0.1875q0.5625 0.125 1.046875 0.34375q0.484375 0.21875 0.828125 0.53125q0.34375 0.3125 0.53125 0.734375q0.203125 0.421875 0.203125 0.953125q0 0.8125 -0.40625 1.40625q-0.390625 0.578125 -1.15625 0.90625q-0.75 0.3125 -1.8125 0.3125q-1.0625 0 -1.84375 -0.328125q-0.78125 -0.328125 -1.21875 -0.953125q-0.4375 -0.640625 -0.453125 -1.578125l1.78125 0q0.03125 0.4375 0.25 0.734375q0.21875 0.28125 0.59375 0.4375q0.390625 0.140625 0.859375 0.140625q0.46875 0 0.8125 -0.140625q0.359375 -0.140625 0.546875 -0.375q0.1875 -0.25 0.1875 -0.5625q0 -0.296875 -0.171875 -0.484375q-0.171875 -0.203125 -0.5 -0.34375q-0.328125 -0.140625 -0.8125 -0.265625l-0.953125 -0.234375q-1.09375 -0.265625 -1.734375 -0.828125q-0.640625 -0.578125 -0.640625 -1.546875q0 -0.796875 0.421875 -1.390625q0.4375 -0.59375 1.1875 -0.921875q0.75 -0.328125 1.703125 -0.328125q0.96875 0 1.6875 0.328125q0.734375 0.328125 1.140625 0.921875q0.40625 0.59375 0.421875 1.375l-1.765625 0z" fill-rule="nonzero"/><path fill="#eeeeee" d="m278.81104 254.72171l130.67715 0l0 30.708649l-130.67715 0z" fill-rule="evenodd"/><path fill="#3c5b64" d="m288.49854 274.2177l0 -7.9375l3.140625 0q0.890625 0 1.53125 0.328125q0.640625 0.3125 0.96875 0.890625q0.34375 0.578125 0.34375 1.375q0 0.78125 -0.34375 1.359375q-0.34375 0.5625 -0.984375 0.875q-0.640625 0.296875 -1.5625 0.296875l-2.09375 0l0 -1.359375l1.828125 0q0.46875 0 0.78125 -0.125q0.328125 -0.125 0.484375 -0.390625q0.15625 -0.265625 0.15625 -0.65625q0 -0.40625 -0.15625 -0.671875q-0.15625 -0.265625 -0.484375 -0.40625q-0.3125 -0.15625 -0.796875 -0.15625l-1.125 0l0 6.578125l-1.6875 0zm4.296875 -3.609375l1.96875 3.609375l-1.859375 0l-1.921875 -3.609375l1.8125 0zm2.870758 3.609375l0 -7.9375l5.359375 0l0 1.375l-3.671875 0l0 1.890625l3.390625 0l0 1.390625l-3.390625 0l0 1.890625l3.6875 0l0 1.390625l-5.375 0zm11.003082 -5.65625q-0.046875 -0.46875 -0.40625 -0.71875q-0.34375 -0.265625 -0.953125 -0.265625q-0.40625 0 -0.6875 0.109375q-0.28125 0.109375 -0.4375 0.3125q-0.15625 0.203125 -0.15625 0.453125q0 0.21875 0.09375 0.375q0.109375 0.15625 0.28125 0.28125q0.171875 0.109375 0.390625 0.203125q0.234375 0.078125 0.5 0.125l0.71875 0.171875q0.515625 0.125 0.9375 0.328125q0.4375 0.1875 0.75 0.46875q0.328125 0.28125 0.5 0.671875q0.1875 0.375 0.1875 0.875q0 0.71875 -0.375 1.265625q-0.359375 0.53125 -1.046875 0.828125q-0.6875 0.28125 -1.65625 0.28125q-0.96875 0 -1.6875 -0.296875q-0.703125 -0.296875 -1.109375 -0.875q-0.390625 -0.578125 -0.40625 -1.4375l1.625 0q0.03125 0.40625 0.234375 0.671875q0.203125 0.265625 0.546875 0.40625q0.34375 0.125 0.765625 0.125q0.4375 0 0.75 -0.125q0.3125 -0.125 0.484375 -0.34375q0.171875 -0.21875 0.171875 -0.5q0 -0.28125 -0.15625 -0.453125q-0.15625 -0.1875 -0.453125 -0.3125q-0.296875 -0.125 -0.734375 -0.234375l-0.859375 -0.21875q-1.015625 -0.25 -1.59375 -0.765625q-0.578125 -0.515625 -0.578125 -1.390625q0 -0.734375 0.390625 -1.265625q0.390625 -0.546875 1.0625 -0.84375q0.6875 -0.296875 1.5625 -0.296875q0.875 0 1.53125 0.296875q0.671875 0.296875 1.03125 0.84375q0.375 0.53125 0.390625 1.25l-1.609375 0zm2.8396301 5.65625l0 -7.9375l5.359375 0l0 1.375l-3.671875 0l0 1.890625l3.390625 0l0 1.390625l-3.390625 0l0 1.890625l3.6875 0l0 1.390625l-5.375 0zm6.6905518 0l0 -7.9375l3.140625 0q0.890625 0 1.53125 0.328125q0.640625 0.3125 0.96875 0.890625q0.34375 0.578125 0.34375 1.375q0 0.78125 -0.34375 1.359375q-0.34375 0.5625 -0.984375 0.875q-0.640625 0.296875 -1.5625 0.296875l-2.09375 0l0 -1.359375l1.828125 0q0.46875 0 0.78125 -0.125q0.328125 -0.125 0.484375 -0.390625q0.15625 -0.265625 0.15625 -0.65625q0 -0.40625 -0.15625 -0.671875q-0.15625 -0.265625 -0.484375 -0.40625q-0.3125 -0.15625 -0.796875 -0.15625l-1.125 0l0 6.578125l-1.6875 0zm4.296875 -3.609375l1.96875 3.609375l-1.859375 0l-1.921875 -3.609375l1.8125 0zm4.0830994 -4.328125l1.921875 6.03125l0.078125 0l1.921875 -6.03125l1.859375 0l-2.734375 7.9375l-2.171875 0l-2.734375 -7.9375l1.859375 0zm7.0497437 7.9375l-1.796875 0l2.734375 -7.9375l2.171875 0l2.734375 7.9375l-1.796875 0l-2.0 -6.125l-0.0625 0l-1.984375 6.125zm-0.109375 -3.125l4.25 0l0 1.3125l-4.25 0l0 -1.3125zm5.627411 -3.4375l0 -1.375l6.515625 0l0 1.375l-2.421875 0l0 6.5625l-1.671875 0l0 -6.5625l-2.421875 0zm9.283905 -1.375l0 7.9375l-1.6875 0l0 -7.9375l1.6875 0zm8.673462 3.96875q0 1.296875 -0.484375 2.21875q-0.484375 0.90625 -1.328125 1.390625q-0.84375 0.46875 -1.90625 0.46875q-1.046875 0 -1.890625 -0.484375q-0.84375 -0.484375 -1.34375 -1.390625q-0.484375 -0.90625 -0.484375 -2.203125q0 -1.296875 0.484375 -2.203125q0.5 -0.921875 1.34375 -1.390625q0.84375 -0.484375 1.890625 -0.484375q1.0625 0 1.90625 0.484375q0.84375 0.46875 1.328125 1.390625q0.484375 0.90625 0.484375 2.203125zm-1.703125 0q0 -0.84375 -0.25 -1.421875q-0.25 -0.578125 -0.703125 -0.875q-0.453125 -0.296875 -1.0625 -0.296875q-0.609375 0 -1.0625 0.296875q-0.453125 0.296875 -0.703125 0.875q-0.25 0.578125 -0.25 1.421875q0 0.84375 0.25 1.421875q0.25 0.578125 0.703125 0.875q0.453125 0.296875 1.0625 0.296875q0.609375 0 1.0625 -0.296875q0.453125 -0.296875 0.703125 -0.875q0.25 -0.578125 0.25 -1.421875zm9.587524 -3.96875l0 7.9375l-1.4375 0l-3.46875 -5.0l-0.046875 0l0 5.0l-1.6875 0l0 -7.9375l1.484375 0l3.421875 4.984375l0.0625 0l0 -4.984375l1.671875 0zm5.2957764 7.9375l-1.796875 0l2.734375 -7.9375l2.171875 0l2.734375 7.9375l-1.796875 0l-2.0 -6.125l-0.0625 0l-1.984375 6.125zm-0.109375 -3.125l4.25 0l0 1.3125l-4.25 0l0 -1.3125zm6.90271 3.125l0 -7.9375l3.140625 0q0.90625 0 1.53125 0.34375q0.640625 0.34375 0.96875 0.953125q0.34375 0.59375 0.34375 1.390625q0 0.796875 -0.34375 1.40625q-0.34375 0.59375 -0.984375 0.9375q-0.640625 0.328125 -1.5625 0.328125l-2.0 0l0 -1.34375l1.734375 0q0.484375 0 0.796875 -0.171875q0.3125 -0.171875 0.46875 -0.46875q0.15625 -0.296875 0.15625 -0.6875q0 -0.390625 -0.15625 -0.6875q-0.15625 -0.296875 -0.484375 -0.46875q-0.3125 -0.171875 -0.796875 -0.171875l-1.125 0l0 6.578125l-1.6875 0zm8.762054 -7.9375l0 7.9375l-1.6875 0l0 -7.9375l1.6875 0z" fill-rule="nonzero"/><path fill="#eeeeee" d="m454.1601 348.87665l111.84253 0l0 45.82675l-111.84253 0z" fill-rule="evenodd"/><path fill="#3c5b64" d="m463.8476 368.37265l0 -7.9375l3.140625 0q0.90625 0 1.53125 0.34375q0.640625 0.34375 0.96875 0.953125q0.34375 0.59375 0.34375 1.390625q0 0.796875 -0.34375 1.40625q-0.34375 0.59375 -0.984375 0.9375q-0.640625 0.328125 -1.5625 0.328125l-2.0 0l0 -1.34375l1.734375 0q0.484375 0 0.796875 -0.171875q0.3125 -0.171875 0.46875 -0.46875q0.15625 -0.296875 0.15625 -0.6875q0 -0.390625 -0.15625 -0.6875q-0.15625 -0.296875 -0.484375 -0.46875q-0.3125 -0.171875 -0.796875 -0.171875l-1.125 0l0 6.578125l-1.6875 0zm14.371429 -3.96875q0 1.296875 -0.484375 2.21875q-0.484375 0.90625 -1.328125 1.390625q-0.84375 0.46875 -1.90625 0.46875q-1.046875 0 -1.890625 -0.484375q-0.84375 -0.484375 -1.34375 -1.390625q-0.484375 -0.90625 -0.484375 -2.203125q0 -1.296875 0.484375 -2.203125q0.5 -0.921875 1.34375 -1.390625q0.84375 -0.484375 1.890625 -0.484375q1.0625 0 1.90625 0.484375q0.84375 0.46875 1.328125 1.390625q0.484375 0.90625 0.484375 2.203125zm-1.703125 0q0 -0.84375 -0.25 -1.421875q-0.25 -0.578125 -0.703125 -0.875q-0.453125 -0.296875 -1.0625 -0.296875q-0.609375 0 -1.0625 0.296875q-0.453125 0.296875 -0.703125 0.875q-0.25 0.578125 -0.25 1.421875q0 0.84375 0.25 1.421875q0.25 0.578125 0.703125 0.875q0.453125 0.296875 1.0625 0.296875q0.609375 0 1.0625 -0.296875q0.453125 -0.296875 0.703125 -0.875q0.25 -0.578125 0.25 -1.421875zm7.25943 -1.6875q-0.046875 -0.46875 -0.40625 -0.71875q-0.34375 -0.265625 -0.953125 -0.265625q-0.40625 0 -0.6875 0.109375q-0.28125 0.109375 -0.4375 0.3125q-0.15625 0.203125 -0.15625 0.453125q0 0.21875 0.09375 0.375q0.109375 0.15625 0.28125 0.28125q0.171875 0.109375 0.390625 0.203125q0.234375 0.078125 0.5 0.125l0.71875 0.171875q0.515625 0.125 0.9375 0.328125q0.4375 0.1875 0.75 0.46875q0.328125 0.28125 0.5 0.671875q0.1875 0.375 0.1875 0.875q0 0.71875 -0.375 1.265625q-0.359375 0.53125 -1.046875 0.828125q-0.6875 0.28125 -1.65625 0.28125q-0.96875 0 -1.6875 -0.296875q-0.703125 -0.296875 -1.109375 -0.875q-0.390625 -0.578125 -0.40625 -1.4375l1.625 0q0.03125 0.40625 0.234375 0.671875q0.203125 0.265625 0.546875 0.40625q0.34375 0.125 0.765625 0.125q0.4375 0 0.75 -0.125q0.3125 -0.125 0.484375 -0.34375q0.171875 -0.21875 0.171875 -0.5q0 -0.28125 -0.15625 -0.453125q-0.15625 -0.1875 -0.453125 -0.3125q-0.296875 -0.125 -0.734375 -0.234375l-0.859375 -0.21875q-1.015625 -0.25 -1.59375 -0.765625q-0.578125 -0.515625 -0.578125 -1.390625q0 -0.734375 0.390625 -1.265625q0.390625 -0.546875 1.0625 -0.84375q0.6875 -0.296875 1.5625 -0.296875q0.875 0 1.53125 0.296875q0.671875 0.296875 1.03125 0.84375q0.375 0.53125 0.390625 1.25l-1.609375 0zm2.5427551 -0.90625l0 -1.375l6.515625 0l0 1.375l-2.421875 0l0 6.5625l-1.671875 0l0 -6.5625l-2.421875 0z" fill-rule="nonzero"/><path fill="#3c5b64" d="m465.2226 383.46063l-1.796875 0l2.734375 -7.9375l2.171875 0l2.734375 7.9375l-1.796875 0l-2.0 -6.125l-0.0625 0l-1.984375 6.125zm-0.109375 -3.125l4.25 0l0 1.3125l-4.25 0l0 -1.3125zm13.543335 -4.8125l0 7.9375l-1.4375 0l-3.46875 -5.0l-0.046875 0l0 5.0l-1.6875 0l0 -7.9375l1.484375 0l3.421875 4.984375l0.0625 0l0 -4.984375l1.671875 0zm8.684937 3.96875q0 1.296875 -0.484375 2.21875q-0.484375 0.90625 -1.328125 1.390625q-0.84375 0.46875 -1.90625 0.46875q-1.046875 0 -1.890625 -0.484375q-0.84375 -0.484375 -1.34375 -1.390625q-0.484375 -0.90625 -0.484375 -2.203125q0 -1.296875 0.484375 -2.203125q0.5 -0.921875 1.34375 -1.390625q0.84375 -0.484375 1.890625 -0.484375q1.0625 0 1.90625 0.484375q0.84375 0.46875 1.328125 1.390625q0.484375 0.90625 0.484375 2.203125zm-1.703125 0q0 -0.84375 -0.25 -1.421875q-0.25 -0.578125 -0.703125 -0.875q-0.453125 -0.296875 -1.0625 -0.296875q-0.609375 0 -1.0625 0.296875q-0.453125 0.296875 -0.703125 0.875q-0.25 0.578125 -0.25 1.421875q0 0.84375 0.25 1.421875q0.25 0.578125 0.703125 0.875q0.453125 0.296875 1.0625 0.296875q0.609375 0 1.0625 -0.296875q0.453125 -0.296875 0.703125 -0.875q0.25 -0.578125 0.25 -1.421875zm9.587524 -3.96875l0 7.9375l-1.4375 0l-3.46875 -5.0l-0.046875 0l0 5.0l-1.6875 0l0 -7.9375l1.484375 0l3.421875 4.984375l0.0625 0l0 -4.984375l1.671875 0zm0.9193115 0l1.890625 0l1.8125 3.421875l0.078125 0l1.8125 -3.421875l1.875 0l-2.890625 5.125l0 2.8125l-1.671875 0l0 -2.8125l-2.90625 -5.125zm8.3811035 0l2.078125 0l2.1875 5.328125l0.09375 0l2.1875 -5.328125l2.0625 0l0 7.9375l-1.625 0l0 -5.171875l-0.0625 0l-2.0625 5.140625l-1.109375 0l-2.046875 -5.15625l-0.078125 0l0 5.1875l-1.625 0l0 -7.9375zm17.288147 3.96875q0 1.296875 -0.484375 2.21875q-0.484375 0.90625 -1.328125 1.390625q-0.84375 0.46875 -1.90625 0.46875q-1.046875 0 -1.890625 -0.484375q-0.84375 -0.484375 -1.34375 -1.390625q-0.484375 -0.90625 -0.484375 -2.203125q0 -1.296875 0.484375 -2.203125q0.5 -0.921875 1.34375 -1.390625q0.84375 -0.484375 1.890625 -0.484375q1.0625 0 1.90625 0.484375q0.84375 0.46875 1.328125 1.390625q0.484375 0.90625 0.484375 2.203125zm-1.703125 0q0 -0.84375 -0.25 -1.421875q-0.25 -0.578125 -0.703125 -0.875q-0.453125 -0.296875 -1.0625 -0.296875q-0.609375 0 -1.0625 0.296875q-0.453125 0.296875 -0.703125 0.875q-0.25 0.578125 -0.25 1.421875q0 0.84375 0.25 1.421875q0.25 0.578125 0.703125 0.875q0.453125 0.296875 1.0625 0.296875q0.609375 0 1.0625 -0.296875q0.453125 -0.296875 0.703125 -0.875q0.25 -0.578125 0.25 -1.421875zm7.8531494 -3.96875l1.6875 0l0 5.15625q0 0.859375 -0.421875 1.515625q-0.40625 0.65625 -1.15625 1.015625q-0.734375 0.359375 -1.71875 0.359375q-0.984375 0 -1.734375 -0.359375q-0.734375 -0.359375 -1.15625 -1.015625q-0.40625 -0.65625 -0.40625 -1.515625l0 -5.15625l1.6875 0l0 5.015625q0 0.453125 0.1875 0.8125q0.203125 0.34375 0.5625 0.546875q0.375 0.203125 0.859375 0.203125q0.484375 0 0.84375 -0.203125q0.375 -0.203125 0.5625 -0.546875q0.203125 -0.359375 0.203125 -0.8125l0 -5.015625zm7.372864 2.28125q-0.046875 -0.46875 -0.40625 -0.71875q-0.34375 -0.265625 -0.953125 -0.265625q-0.40625 0 -0.6875 0.109375q-0.28125 0.109375 -0.4375 0.3125q-0.15625 0.203125 -0.15625 0.453125q0 0.21875 0.09375 0.375q0.109375 0.15625 0.28125 0.28125q0.171875 0.109375 0.390625 0.203125q0.234375 0.078125 0.5 0.125l0.71875 0.171875q0.515625 0.125 0.9375 0.328125q0.4375 0.1875 0.75 0.46875q0.328125 0.28125 0.5 0.671875q0.1875 0.375 0.1875 0.875q0 0.71875 -0.375 1.265625q-0.359375 0.53125 -1.046875 0.828125q-0.6875 0.28125 -1.65625 0.28125q-0.96875 0 -1.6875 -0.296875q-0.703125 -0.296875 -1.109375 -0.875q-0.390625 -0.578125 -0.40625 -1.4375l1.625 0q0.03125 0.40625 0.234375 0.671875q0.203125 0.265625 0.546875 0.40625q0.34375 0.125 0.765625 0.125q0.4375 0 0.75 -0.125q0.3125 -0.125 0.484375 -0.34375q0.171875 -0.21875 0.171875 -0.5q0 -0.28125 -0.15625 -0.453125q-0.15625 -0.1875 -0.453125 -0.3125q-0.296875 -0.125 -0.734375 -0.234375l-0.859375 -0.21875q-1.015625 -0.25 -1.59375 -0.765625q-0.578125 -0.515625 -0.578125 -1.390625q0 -0.734375 0.390625 -1.265625q0.390625 -0.546875 1.0625 -0.84375q0.6875 -0.296875 1.5625 -0.296875q0.875 0 1.53125 0.296875q0.671875 0.296875 1.03125 0.84375q0.375 0.53125 0.390625 1.25l-1.609375 0zm2.8396606 5.65625l0 -7.9375l1.6875 0l0 6.546875l3.40625 0l0 1.390625l-5.09375 0zm4.711975 -7.9375l1.890625 0l1.8125 3.421875l0.078125 0l1.8125 -3.421875l1.875 0l-2.890625 5.125l0 2.8125l-1.671875 0l0 -2.8125l-2.90625 -5.125z" fill-rule="nonzero"/></g></svg>